# xmcd
#
# Track frame offsets:
#	150
#	12413
#	22447
#	36940
#	49274
#	61608
#	75000
#	85815
#	99861
#	113713
#
# Disc length: 1695 seconds
#
# Revision: 1
# Processed by: cddbd v1.5.2PL0 Copyright (c) Steve Scherf et al.
# Submitted via: audiograbber 1.83.01
#
DISCID=6d069d0a
DTITLE=Dolly Parton - Best Of Dolly Parton - Vol. 2
DYEAR=1975
DGENRE=Country
TTITLE0=Jolene
TTITLE1=Traveling Man
TTITLE2=Lonely Comin' Down
TTITLE3=The Bargain Store
TTITLE4=Touch Your Woman
TTITLE5=I Will Always Love You
TTITLE6=Love Is Like A Butterfly
TTITLE7=Coat Of Many Colors
TTITLE8=My Tennessee Mountain Home
TTITLE9=When I Sing For Him
EXTD=
EXTT0=
EXTT1=
EXTT2=
EXTT3=
EXTT4=
EXTT5=
EXTT6=
EXTT7=
EXTT8=
EXTT9=
PLAYORDER=
